<?xml version="1.0" encoding="UTF-8" standalone="no"?>
<svg width="479px" height="121px" viewBox="0 0 479 121" version="1.1" xmlns="http://www.w3.org/2000/svg" xmlns:xlink="http://www.w3.org/1999/xlink">
    <!-- Generator: Sketch 45.2 (43514) - http://www.bohemiancoding.com/sketch -->
    <title>Group 3 Copy</title>
    <desc>Created with Sketch.</desc>
    <defs></defs>
    <g id="Page-1" stroke="none" stroke-width="1" fill="none" fill-rule="evenodd">
        <g id="Group-3-Copy" fill="#FFFFFF">
            <g id="Group-Copy-2" fill-rule="nonzero">
                <path d="M60.5,113.776119 C89.9235883,113.776119 113.776119,89.9235883 113.776119,60.5 C113.776119,31.0764117 89.9235883,7.2238806 60.5,7.2238806 C31.0764117,7.2238806 7.2238806,31.0764117 7.2238806,60.5 C7.2238806,89.9235883 31.0764117,113.776119 60.5,113.776119 Z M60.5,121 C27.0867726,121 0,93.9132274 0,60.5 C0,27.0867726 27.0867726,0 60.5,0 C93.9132274,0 121,27.0867726 121,60.5 C121,93.9132274 93.9132274,121 60.5,121 Z" id="Oval-6"></path>
                <path d="M23.5095993,62.4389013 C25.5282288,59.7268465 32.7297144,51.9958935 44.8789748,39.5291469 C52.0376286,32.1834222 59.4254632,31.5477245 63.537873,36.0407309 C67.8788888,40.7835005 67.1964753,49.502703 60.0251266,57.9436811 C49.1914169,70.6954118 47.9894226,84.0159428 56.1029589,91.291076 C63.9742707,98.3490148 76.8431538,96.1185869 86.3880103,85.4010491 C92.759824,78.5636265 98.4752861,72.0754328 103.480408,65.9947742 C104.748155,64.4546045 104.527312,62.1783383 102.987143,60.9105914 C101.446973,59.6428444 99.1707067,59.8636867 97.9029598,61.4038563 C92.9964092,67.3647624 87.3778706,73.7429286 81.0480296,80.5366411 C73.8943133,88.5678912 65.5078014,90.0214369 60.9255655,85.9127012 C56.1637585,81.64295 56.9711416,72.6955104 65.530406,62.6208971 C74.8902515,51.6039664 75.8895276,38.8362096 68.8666356,31.1633608 C61.7017581,23.3353859 49.5548932,24.3805817 39.7054687,34.4873927 C27.2642058,47.2537724 20.012319,55.0388322 17.7147268,58.125677 C16.5236628,59.7258868 16.8553411,61.9886614 18.4555509,63.1797254 C20.0557608,64.3707894 22.3185353,64.0391111 23.5095993,62.4389013 Z" id="Path-6"></path>
            </g>
            <path d="M153,30.515625 L164.083499,30.515625 L164.083499,37.5416667 L164.268224,37.5416667 C165.49973,34.9531121 167.254599,32.9500939 169.532885,31.5325521 C171.811172,30.1150103 174.428083,29.40625 177.383697,29.40625 C178.061025,29.40625 178.72295,29.4678813 179.36949,29.5911458 C180.016031,29.7144103 180.677956,29.8684887 181.355284,30.0533854 L181.355284,40.7773438 C180.431654,40.5308147 179.523432,40.3305129 178.630591,40.1764323 C177.737749,40.0223517 176.860314,39.9453125 175.99826,39.9453125 C173.412097,39.9453125 171.333962,40.4229553 169.763792,41.3782552 C168.193621,42.3335551 166.992921,43.4275112 166.161655,44.6601562 C165.330388,45.8928013 164.776219,47.1254279 164.49913,48.3580729 C164.222041,49.590718 164.083499,50.5151879 164.083499,51.1315104 L164.083499,74.890625 L153,74.890625 L153,30.515625 Z M228.284224,74.890625 L217.754901,74.890625 L217.754901,67.7721354 L217.570176,67.7721354 C216.523396,69.9908965 214.922462,71.9168755 212.767326,73.5501302 C210.612191,75.1833849 207.687408,76 203.99289,76 C201.037276,76 198.52812,75.5223572 196.465347,74.5670573 C194.402575,73.6117574 192.724673,72.3174995 191.431592,70.6842448 C190.13851,69.0509901 189.214895,67.1866424 188.660717,65.0911458 C188.106539,62.9956492 187.829455,60.8077371 187.829455,58.5273438 L187.829455,30.515625 L198.912953,30.515625 L198.912953,52.9804688 C198.912953,54.2131138 198.974528,55.5844109 199.097678,57.094401 C199.220829,58.6043912 199.544094,60.0219118 200.067484,61.3470052 C200.590874,62.6720986 201.391341,63.7814625 202.468909,64.6751302 C203.546477,65.5687979 205.070443,66.015625 207.040852,66.015625 C208.888111,66.015625 210.442864,65.7074684 211.705158,65.0911458 C212.967451,64.4748233 214.014216,63.6428004 214.845482,62.5950521 C215.676749,61.5473038 216.277099,60.3454929 216.646551,58.9895833 C217.016003,57.6336738 217.200726,56.2161532 217.200726,54.7369792 L217.200726,30.515625 L228.284224,30.515625 L228.284224,74.890625 Z M239.745969,30.515625 L250.275293,30.515625 L250.275293,37.6341146 L250.460018,37.6341146 C251.506798,35.4153535 253.107732,33.4893745 255.262867,31.8561198 C257.418003,30.2228651 260.342786,29.40625 264.037304,29.40625 C266.992918,29.40625 269.502074,29.8993006 271.564847,30.8854167 C273.627619,31.8715327 275.305521,33.1657906 276.598602,34.7682292 C277.891684,36.3706677 278.815299,38.2196076 279.369477,40.3151042 C279.923655,42.4106008 280.200739,44.5985129 280.200739,46.8789063 L280.200739,74.890625 L269.117241,74.890625 L269.117241,52.4257812 C269.117241,51.1931362 269.055666,49.8218391 268.932516,48.311849 C268.809365,46.8018588 268.4861,45.3843382 267.96271,44.0592448 C267.43932,42.7341514 266.623459,41.6247875 265.515104,40.7311198 C264.406748,39.8374521 262.898176,39.390625 260.989342,39.390625 C259.142083,39.390625 257.58733,39.6987816 256.325036,40.3151042 C255.062742,40.9314267 254.015978,41.7634496 253.184711,42.8111979 C252.353445,43.8589462 251.753095,45.0607571 251.383643,46.4166667 C251.014191,47.7725762 250.829468,49.1900968 250.829468,50.6692708 L250.829468,74.890625 L239.745969,74.890625 L239.745969,30.515625 Z M315.307281,42.8111979 C313.152146,39.7912175 310.25815,38.28125 306.625207,38.28125 C305.1474,38.28125 303.700402,38.651038 302.28417,39.390625 C300.867939,40.130212 300.159833,41.3320229 300.159833,42.9960938 C300.159833,44.3520033 300.74479,45.3381046 301.914721,45.9544271 C303.084651,46.5707496 304.562436,47.0946159 306.34812,47.5260417 C308.133804,47.9574674 310.058003,48.4042946 312.120775,48.8665365 C314.183548,49.3287784 316.107747,50.0375386 317.893431,50.9928385 C319.679115,51.9481385 321.1569,53.2578042 322.32683,54.921875 C323.496761,56.5859458 324.081718,58.866305 324.081718,61.7630208 C324.081718,64.4132077 323.512155,66.6473433 322.373012,68.4654948 C321.233869,70.2836462 319.756084,71.7473903 317.939612,72.8567708 C316.123141,73.9661514 314.075793,74.7673586 311.797507,75.2604167 C309.519221,75.7534747 307.240969,76 304.962683,76 C301.514466,76 298.343385,75.5069494 295.449346,74.5208333 C292.555307,73.5347173 289.969183,71.7474088 287.690897,69.1588542 L295.079896,62.2252604 C296.496128,63.827699 298.020094,65.1373647 299.65184,66.1542969 C301.283585,67.171229 303.269359,67.6796875 305.60922,67.6796875 C306.409699,67.6796875 307.240953,67.5872405 308.103007,67.4023438 C308.965061,67.217447 309.765528,66.9092904 310.504432,66.4778646 C311.243336,66.0464388 311.843686,65.5071647 312.3055,64.860026 C312.767315,64.2128874 312.998219,63.4579036 312.998219,62.5950521 C312.998219,61.0542458 312.413263,59.9140662 311.243332,59.1744792 C310.073401,58.4348921 308.595616,57.8339867 306.809932,57.3717448 C305.024249,56.9095029 303.100049,56.4780836 301.037277,56.077474 C298.974504,55.6768643 297.050305,55.0297354 295.264621,54.1360677 C293.478938,53.2424 292.001153,51.9943657 290.831222,50.3919271 C289.661291,48.7894885 289.076335,46.5707607 289.076335,43.7356771 C289.076335,41.270387 289.584323,39.1286983 290.600316,37.3105469 C291.616308,35.4923954 292.955551,33.9978357 294.618084,32.8268229 C296.280617,31.6558101 298.189423,30.7929715 300.344558,30.2382813 C302.499694,29.683591 304.685584,29.40625 306.902295,29.40625 C309.857909,29.40625 312.782692,29.9147085 315.676731,30.9316406 C318.57077,31.9485728 320.910597,33.6896578 322.69628,36.1549479 L315.307281,42.8111979 Z M340.438675,56.5859375 C340.808126,59.9140791 342.101188,62.5025949 344.317899,64.3515625 C346.53461,66.2005301 349.213095,67.125 352.353436,67.125 C355.124324,67.125 357.448757,66.5549102 359.326803,65.4147135 C361.20485,64.2745169 362.851965,62.8415885 364.268197,61.1158854 L372.211371,67.125 C369.625208,70.3298771 366.731212,72.6102363 363.529297,73.9661458 C360.327381,75.3220554 356.971578,76 353.461785,76 C350.136719,76 346.996426,75.445318 344.040812,74.3359375 C341.085197,73.226557 338.529861,71.6549581 336.374725,69.6210938 C334.21959,67.5872294 332.510901,65.1373841 331.248607,62.2714844 C329.986313,59.4055846 329.355176,56.2161634 329.355176,52.703125 C329.355176,49.1900866 329.986313,46.0006654 331.248607,43.1347656 C332.510901,40.2688659 334.21959,37.8190206 336.374725,35.7851563 C338.529861,33.7512919 341.085197,32.179693 344.040812,31.0703125 C346.996426,29.960932 350.136719,29.40625 353.461785,29.40625 C356.54055,29.40625 359.357578,29.9455241 361.912953,31.0240885 C364.468328,32.102653 366.654218,33.658844 368.47069,35.6927083 C370.287161,37.7265727 371.703372,40.2380493 372.719364,43.2272135 C373.735357,46.2163778 374.243345,49.6523243 374.243345,53.5351563 L374.243345,56.5859375 L340.438675,56.5859375 Z M363.159847,48.265625 C363.098271,44.9991156 362.082294,42.4260077 360.111885,40.546224 C358.141475,38.6664403 355.401415,37.7265625 351.891623,37.7265625 C348.566557,37.7265625 345.934252,38.6818481 343.99463,40.5924479 C342.055008,42.5030477 340.869702,45.0607479 340.438675,48.265625 L363.159847,48.265625 Z M392.355189,56.5859375 C392.724641,59.9140791 394.017703,62.5025949 396.234414,64.3515625 C398.451125,66.2005301 401.12961,67.125 404.26995,67.125 C407.040839,67.125 409.365272,66.5549102 411.243318,65.4147135 C413.121365,64.2745169 414.76848,62.8415885 416.184711,61.1158854 L424.127885,67.125 C421.541723,70.3298771 418.647727,72.6102363 415.445812,73.9661458 C412.243896,75.3220554 408.888092,76 405.3783,76 C402.053234,76 398.912941,75.445318 395.957327,74.3359375 C393.001712,73.226557 390.446376,71.6549581 388.29124,69.6210938 C386.136104,67.5872294 384.427416,65.1373841 383.165122,62.2714844 C381.902828,59.4055846 381.271691,56.2161634 381.271691,52.703125 C381.271691,49.1900866 381.902828,46.0006654 383.165122,43.1347656 C384.427416,40.2688659 386.136104,37.8190206 388.29124,35.7851563 C390.446376,33.7512919 393.001712,32.179693 395.957327,31.0703125 C398.912941,29.960932 402.053234,29.40625 405.3783,29.40625 C408.457065,29.40625 411.274093,29.9455241 413.829468,31.0240885 C416.384843,32.102653 418.570733,33.658844 420.387205,35.6927083 C422.203676,37.7265727 423.619887,40.2380493 424.635879,43.2272135 C425.651872,46.2163778 426.15986,49.6523243 426.15986,53.5351563 L426.15986,56.5859375 L392.355189,56.5859375 Z M415.076362,48.265625 C415.014786,44.9991156 413.998809,42.4260077 412.0284,40.546224 C410.05799,38.6664403 407.31793,37.7265625 403.808138,37.7265625 C400.483072,37.7265625 397.850767,38.6818481 395.911145,40.5924479 C393.971523,42.5030477 392.786217,45.0607479 392.355189,48.265625 L415.076362,48.265625 Z M435.404905,5 L446.488404,5 L446.488404,48.9127604 L463.575464,30.515625 L477.799288,30.515625 L458.772615,50.6692708 L479,74.890625 L464.314364,74.890625 L446.673129,52.2408854 L446.488404,52.2408854 L446.488404,74.890625 L435.404905,74.890625 L435.404905,5 Z" id="runseek"></path>
        </g>
    </g>
</svg>