<?xml version="1.0" encoding="UTF-8" standalone="no"?>
<svg width="450px" height="121px" viewBox="0 0 450 121" version="1.1" xmlns="http://www.w3.org/2000/svg" xmlns:xlink="http://www.w3.org/1999/xlink">
    <!-- Generator: Sketch 45.2 (43514) - http://www.bohemiancoding.com/sketch -->
    <title>Group 3</title>
    <desc>Created with Sketch.</desc>
    <defs></defs>
    <g id="Page-1" stroke="none" stroke-width="1" fill="none" fill-rule="evenodd">
        <g id="Group-3" fill="#00B8E1">
            <g id="Group-Copy-2" fill-rule="nonzero">
                <path d="M60.5,113.776119 C89.9235883,113.776119 113.776119,89.9235883 113.776119,60.5 C113.776119,31.0764117 89.9235883,7.2238806 60.5,7.2238806 C31.0764117,7.2238806 7.2238806,31.0764117 7.2238806,60.5 C7.2238806,89.9235883 31.0764117,113.776119 60.5,113.776119 Z M60.5,121 C27.0867726,121 0,93.9132274 0,60.5 C0,27.0867726 27.0867726,0 60.5,0 C93.9132274,0 121,27.0867726 121,60.5 C121,93.9132274 93.9132274,121 60.5,121 Z" id="Oval-6"></path>
                <path d="M23.5095993,62.4389013 C25.5282288,59.7268465 32.7297144,51.9958935 44.8789748,39.5291469 C52.0376286,32.1834222 59.4254632,31.5477245 63.537873,36.0407309 C67.8788888,40.7835005 67.1964753,49.502703 60.0251266,57.9436811 C49.1914169,70.6954118 47.9894226,84.0159428 56.1029589,91.291076 C63.9742707,98.3490148 76.8431538,96.1185869 86.3880103,85.4010491 C92.759824,78.5636265 98.4752861,72.0754328 103.480408,65.9947742 C104.748155,64.4546045 104.527312,62.1783383 102.987143,60.9105914 C101.446973,59.6428444 99.1707067,59.8636867 97.9029598,61.4038563 C92.9964092,67.3647624 87.3778706,73.7429286 81.0480296,80.5366411 C73.8943133,88.5678912 65.5078014,90.0214369 60.9255655,85.9127012 C56.1637585,81.64295 56.9711416,72.6955104 65.530406,62.6208971 C74.8902515,51.6039664 75.8895276,38.8362096 68.8666356,31.1633608 C61.7017581,23.3353859 49.5548932,24.3805817 39.7054687,34.4873927 C27.2642058,47.2537724 20.012319,55.0388322 17.7147268,58.125677 C16.5236628,59.7258868 16.8553411,61.9886614 18.4555509,63.1797254 C20.0557608,64.3707894 22.3185353,64.0391111 23.5095993,62.4389013 Z" id="Path-6"></path>
            </g>
            <path d="M153,51.184 L163.08,51.184 L163.08,57.568 L163.248,57.568 C164.368006,55.2159882 165.96399,53.3960064 168.036,52.108 C170.10801,50.8199936 172.487987,50.176 175.176,50.176 C175.792003,50.176 176.393997,50.2319994 176.982,50.344 C177.570003,50.4560006 178.171997,50.5959992 178.788,50.764 L178.788,60.508 C177.947996,60.2839989 177.122004,60.1020007 176.31,59.962 C175.497996,59.8219993 174.700004,59.752 173.916,59.752 C171.563988,59.752 169.674007,60.1859957 168.246,61.054 C166.817993,61.9220043 165.726004,62.9159944 164.97,64.036 C164.213996,65.1560056 163.710001,66.2759944 163.458,67.396 C163.205999,68.5160056 163.08,69.3559972 163.08,69.916 L163.08,91.504 L153,91.504 L153,51.184 Z M221.468,91.504 L211.892,91.504 L211.892,85.036 L211.724,85.036 C210.771995,87.0520101 209.31601,88.8019926 207.356,90.286 C205.39599,91.7700074 202.736017,92.512 199.376,92.512 C196.687987,92.512 194.406009,92.0780043 192.53,91.21 C190.653991,90.3419957 189.128006,89.1660074 187.952,87.682 C186.775994,86.1979926 185.936003,84.5040095 185.432,82.6 C184.927997,80.6959905 184.676,78.7080104 184.676,76.636 L184.676,51.184 L194.756,51.184 L194.756,71.596 C194.756,72.7160056 194.811999,73.9619931 194.924,75.334 C195.036001,76.7060069 195.329998,77.993994 195.806,79.198 C196.282002,80.402006 197.009995,81.4099959 197.99,82.222 C198.970005,83.0340041 200.355991,83.44 202.148,83.44 C203.828008,83.44 205.241994,83.1600028 206.39,82.6 C207.538006,82.0399972 208.489996,81.2840048 209.246,80.332 C210.002004,79.3799952 210.547998,78.2880062 210.884,77.056 C211.220002,75.8239938 211.388,74.5360067 211.388,73.192 L211.388,51.184 L221.468,51.184 L221.468,91.504 Z M231.892,51.184 L241.468,51.184 L241.468,57.652 L241.636,57.652 C242.588005,55.6359899 244.04399,53.8860074 246.004,52.402 C247.96401,50.9179926 250.623983,50.176 253.984,50.176 C256.672013,50.176 258.953991,50.6239955 260.83,51.52 C262.706009,52.4160045 264.231994,53.5919927 265.408,55.048 C266.584006,56.5040073 267.423997,58.1839905 267.928,60.088 C268.432003,61.9920095 268.684,63.9799896 268.684,66.052 L268.684,91.504 L258.604,91.504 L258.604,71.092 C258.604,69.9719944 258.548001,68.7260069 258.436,67.354 C258.323999,65.9819931 258.030002,64.694006 257.554,63.49 C257.077998,62.285994 256.336005,61.2780041 255.328,60.466 C254.319995,59.6539959 252.948009,59.248 251.212,59.248 C249.531992,59.248 248.118006,59.5279972 246.97,60.088 C245.821994,60.6480028 244.870004,61.4039952 244.114,62.356 C243.357996,63.3080048 242.812002,64.3999938 242.476,65.632 C242.139998,66.8640062 241.972,68.1519933 241.972,69.496 L241.972,91.504 L231.892,91.504 L231.892,51.184 Z M300.612,62.356 C298.65199,59.6119863 296.020017,58.24 292.716,58.24 C291.371993,58.24 290.056006,58.5759966 288.768,59.248 C287.479994,59.9200034 286.836,61.0119924 286.836,62.524 C286.836,63.7560062 287.367995,64.6519972 288.432,65.212 C289.496005,65.7720028 290.839992,66.247998 292.464,66.64 C294.088008,67.032002 295.837991,67.4379979 297.714,67.858 C299.590009,68.2780021 301.339992,68.9219957 302.964,69.79 C304.588008,70.6580043 305.931995,71.8479924 306.996,73.36 C308.060005,74.8720076 308.592,76.9439868 308.592,79.576 C308.592,81.984012 308.074005,84.0139917 307.038,85.666 C306.001995,87.3180083 304.658008,88.647995 303.006,89.656 C301.353992,90.664005 299.49201,91.3919978 297.42,91.84 C295.34799,92.2880022 293.27601,92.512 291.204,92.512 C288.067984,92.512 285.184013,92.0640045 282.552,91.168 C279.919987,90.2719955 277.56801,88.6480118 275.496,86.296 L282.216,79.996 C283.504006,81.4520073 284.889993,82.6419954 286.374,83.566 C287.858007,84.4900046 289.663989,84.952 291.792,84.952 C292.520004,84.952 293.275996,84.8680008 294.06,84.7 C294.844004,84.5319992 295.571997,84.252002 296.244,83.86 C296.916003,83.467998 297.461998,82.9780029 297.882,82.39 C298.302002,81.8019971 298.512,81.1160039 298.512,80.332 C298.512,78.931993 297.980005,77.8960034 296.916,77.224 C295.851995,76.5519966 294.508008,76.0060021 292.884,75.586 C291.259992,75.1659979 289.510009,74.7740018 287.634,74.41 C285.757991,74.0459982 284.008008,73.4580041 282.384,72.646 C280.759992,71.8339959 279.416005,70.7000073 278.352,69.244 C277.287995,67.7879927 276.756,65.7720129 276.756,63.196 C276.756,60.9559888 277.217995,59.0100083 278.142,57.358 C279.066005,55.7059917 280.283992,54.3480053 281.796,53.284 C283.308008,52.2199947 285.04399,51.4360025 287.004,50.932 C288.96401,50.4279975 290.95199,50.176 292.968,50.176 C295.656013,50.176 298.315987,50.6379954 300.948,51.562 C303.580013,52.4860046 305.707992,54.0679888 307.332,56.308 L300.612,62.356 Z M323.468,74.872 C323.804002,77.8960151 324.97999,80.2479916 326.996,81.928 C329.01201,83.6080084 331.447986,84.448 334.304,84.448 C336.824013,84.448 338.937991,83.9300052 340.646,82.894 C342.354009,81.8579948 343.851994,80.5560078 345.14,78.988 L352.364,84.448 C350.011988,87.3600146 347.380015,89.4319938 344.468,90.664 C341.555985,91.8960062 338.504016,92.512 335.312,92.512 C332.287985,92.512 329.432013,92.008005 326.744,91 C324.055987,89.991995 321.73201,88.5640092 319.772,86.716 C317.81199,84.8679908 316.258006,82.642013 315.11,80.038 C313.961994,77.433987 313.388,74.536016 313.388,71.344 C313.388,68.151984 313.961994,65.254013 315.11,62.65 C316.258006,60.045987 317.81199,57.8200092 319.772,55.972 C321.73201,54.1239908 324.055987,52.696005 326.744,51.688 C329.432013,50.679995 332.287985,50.176 335.312,50.176 C338.112014,50.176 340.673988,50.6659951 342.998,51.646 C345.322012,52.6260049 347.309992,54.0399908 348.962,55.888 C350.614008,57.7360092 351.901995,60.0179864 352.826,62.734 C353.750005,65.4500136 354.212,68.5719824 354.212,72.1 L354.212,74.872 L323.468,74.872 Z M344.132,67.312 C344.076,64.3439852 343.152009,62.0060085 341.36,60.298 C339.567991,58.5899915 337.076016,57.736 333.884,57.736 C330.859985,57.736 328.466009,58.6039913 326.702,60.34 C324.937991,62.0760087 323.860002,64.3999854 323.468,67.312 L344.132,67.312 Z M370.684,74.872 C371.020002,77.8960151 372.19599,80.2479916 374.212,81.928 C376.22801,83.6080084 378.663986,84.448 381.52,84.448 C384.040013,84.448 386.153991,83.9300052 387.862,82.894 C389.570009,81.8579948 391.067994,80.5560078 392.356,78.988 L399.58,84.448 C397.227988,87.3600146 394.596015,89.4319938 391.684,90.664 C388.771985,91.8960062 385.720016,92.512 382.528,92.512 C379.503985,92.512 376.648013,92.008005 373.96,91 C371.271987,89.991995 368.94801,88.5640092 366.988,86.716 C365.02799,84.8679908 363.474006,82.642013 362.326,80.038 C361.177994,77.433987 360.604,74.536016 360.604,71.344 C360.604,68.151984 361.177994,65.254013 362.326,62.65 C363.474006,60.045987 365.02799,57.8200092 366.988,55.972 C368.94801,54.1239908 371.271987,52.696005 373.96,51.688 C376.648013,50.679995 379.503985,50.176 382.528,50.176 C385.328014,50.176 387.889988,50.6659951 390.214,51.646 C392.538012,52.6260049 394.525992,54.0399908 396.178,55.888 C397.830008,57.7360092 399.117995,60.0179864 400.042,62.734 C400.966005,65.4500136 401.428,68.5719824 401.428,72.1 L401.428,74.872 L370.684,74.872 Z M391.348,67.312 C391.292,64.3439852 390.368009,62.0060085 388.576,60.298 C386.783991,58.5899915 384.292016,57.736 381.1,57.736 C378.075985,57.736 375.682009,58.6039913 373.918,60.34 C372.153991,62.0760087 371.076002,64.3999854 370.684,67.312 L391.348,67.312 Z M409.836,28 L419.916,28 L419.916,67.9 L435.456,51.184 L448.392,51.184 L431.088,69.496 L449.484,91.504 L436.128,91.504 L420.084,70.924 L419.916,70.924 L419.916,91.504 L409.836,91.504 L409.836,28 Z" id="runseek"></path>
        </g>
    </g>
</svg>