<?xml version="1.0" encoding="UTF-8"?>
<svg width="440px" height="121px" viewBox="0 0 440 121" version="1.1" xmlns="http://www.w3.org/2000/svg" xmlns:xlink="http://www.w3.org/1999/xlink">
    <!-- Generator: Sketch 45.2 (43514) - http://www.bohemiancoding.com/sketch -->
    <title>Group 4</title>
    <desc>Created with Sketch.</desc>
    <defs></defs>
    <g id="Page-1" stroke="none" stroke-width="1" fill="none" fill-rule="evenodd">
        <g id="Group-4" transform="translate(0.000000, -9.000000)" fill="#FFFFFF">
            <text id="covorun" font-family="Avenir-Heavy, Avenir" font-size="84" font-weight="600" letter-spacing="-2.5">
                <tspan x="145" y="84">covoru</tspan>
                <tspan x="397.456" y="84">n</tspan>
            </text>
            <g id="Group-Copy-2" transform="translate(0.000000, 9.000000)" fill-rule="nonzero">
                <path d="M60.5,113.776119 C89.9235883,113.776119 113.776119,89.9235883 113.776119,60.5 C113.776119,31.0764117 89.9235883,7.2238806 60.5,7.2238806 C31.0764117,7.2238806 7.2238806,31.0764117 7.2238806,60.5 C7.2238806,89.9235883 31.0764117,113.776119 60.5,113.776119 Z M60.5,121 C27.0867726,121 0,93.9132274 0,60.5 C0,27.0867726 27.0867726,0 60.5,0 C93.9132274,0 121,27.0867726 121,60.5 C121,93.9132274 93.9132274,121 60.5,121 Z" id="Oval-6"></path>
                <path d="M23.5095993,62.4389013 C25.5282288,59.7268465 32.7297144,51.9958935 44.8789748,39.5291469 C52.0376286,32.1834222 59.4254632,31.5477245 63.537873,36.0407309 C67.8788888,40.7835005 67.1964753,49.502703 60.0251266,57.9436811 C49.1914169,70.6954118 47.9894226,84.0159428 56.1029589,91.291076 C63.9742707,98.3490148 76.8431538,96.1185869 86.3880103,85.4010491 C92.759824,78.5636265 98.4752861,72.0754328 103.480408,65.9947742 C104.748155,64.4546045 104.527312,62.1783383 102.987143,60.9105914 C101.446973,59.6428444 99.1707067,59.8636867 97.9029598,61.4038563 C92.9964092,67.3647624 87.3778706,73.7429286 81.0480296,80.5366411 C73.8943133,88.5678912 65.5078014,90.0214369 60.9255655,85.9127012 C56.1637585,81.64295 56.9711416,72.6955104 65.530406,62.6208971 C74.8902515,51.6039664 75.8895276,38.8362096 68.8666356,31.1633608 C61.7017581,23.3353859 49.5548932,24.3805817 39.7054687,34.4873927 C27.2642058,47.2537724 20.012319,55.0388322 17.7147268,58.125677 C16.5236628,59.7258868 16.8553411,61.9886614 18.4555509,63.1797254 C20.0557608,64.3707894 22.3185353,64.0391111 23.5095993,62.4389013 Z" id="Path-6"></path>
            </g>
        </g>
    </g>
</svg>